<svg xmlns="http://www.w3.org/2000/svg" xmlns:xlink="http://www.w3.org/1999/xlink" width="600" height="400" viewBox="0 0 2400 1600">
<defs>
  <clipPath id="clip880">
    <rect x="0" y="0" width="2400" height="1600"></rect>
  </clipPath>
</defs>
<path clip-path="url(#clip880)" d="
M0 1600 L2400 1600 L2400 0 L0 0  Z
  " fill="#ffffff" fill-rule="evenodd" fill-opacity="1"></path>
<defs>
  <clipPath id="clip881">
    <rect x="480" y="0" width="1681" height="1600"></rect>
  </clipPath>
</defs>
<path clip-path="url(#clip880)" d="
M112.177 1486.45 L2352.76 1486.45 L2352.76 47.2441 L112.177 47.2441  Z
  " fill="#ffffff" fill-rule="evenodd" fill-opacity="1"></path>
<defs>
  <clipPath id="clip882">
    <rect x="112" y="47" width="2242" height="1440"></rect>
  </clipPath>
</defs>
<polyline clip-path="url(#clip882)" style="stroke:#000000; stroke-linecap:round; stroke-linejoin:round; stroke-width:2; stroke-opacity:0.1; fill:none" points="
  175.59,1486.45 175.59,47.2441 
  "></polyline>
<polyline clip-path="url(#clip882)" style="stroke:#000000; stroke-linecap:round; stroke-linejoin:round; stroke-width:2; stroke-opacity:0.1; fill:none" points="
  880.174,1486.45 880.174,47.2441 
  "></polyline>
<polyline clip-path="url(#clip882)" style="stroke:#000000; stroke-linecap:round; stroke-linejoin:round; stroke-width:2; stroke-opacity:0.1; fill:none" points="
  1584.76,1486.45 1584.76,47.2441 
  "></polyline>
<polyline clip-path="url(#clip882)" style="stroke:#000000; stroke-linecap:round; stroke-linejoin:round; stroke-width:2; stroke-opacity:0.1; fill:none" points="
  2289.34,1486.45 2289.34,47.2441 
  "></polyline>
<polyline clip-path="url(#clip880)" style="stroke:#000000; stroke-linecap:round; stroke-linejoin:round; stroke-width:4; stroke-opacity:1; fill:none" points="
  112.177,1486.45 2352.76,1486.45 
  "></polyline>
<polyline clip-path="url(#clip880)" style="stroke:#000000; stroke-linecap:round; stroke-linejoin:round; stroke-width:4; stroke-opacity:1; fill:none" points="
  175.59,1486.45 175.59,1467.55 
  "></polyline>
<polyline clip-path="url(#clip880)" style="stroke:#000000; stroke-linecap:round; stroke-linejoin:round; stroke-width:4; stroke-opacity:1; fill:none" points="
  880.174,1486.45 880.174,1467.55 
  "></polyline>
<polyline clip-path="url(#clip880)" style="stroke:#000000; stroke-linecap:round; stroke-linejoin:round; stroke-width:4; stroke-opacity:1; fill:none" points="
  1584.76,1486.45 1584.76,1467.55 
  "></polyline>
<polyline clip-path="url(#clip880)" style="stroke:#000000; stroke-linecap:round; stroke-linejoin:round; stroke-width:4; stroke-opacity:1; fill:none" points="
  2289.34,1486.45 2289.34,1467.55 
  "></polyline>
<path clip-path="url(#clip880)" d="M165.972 1544.91 L173.611 1544.91 L173.611 1518.55 L165.3 1520.21 L165.3 1515.95 L173.564 1514.29 L178.24 1514.29 L178.24 1544.91 L185.879 1544.91 L185.879 1548.85 L165.972 1548.85 L165.972 1544.91 Z" fill="#000000" fill-rule="evenodd" fill-opacity="1"></path><path clip-path="url(#clip880)" d="M874.827 1544.91 L891.146 1544.91 L891.146 1548.85 L869.202 1548.85 L869.202 1544.91 Q871.864 1542.16 876.447 1537.53 Q881.054 1532.88 882.234 1531.53 Q884.48 1529.01 885.359 1527.27 Q886.262 1525.51 886.262 1523.82 Q886.262 1521.07 884.318 1519.33 Q882.396 1517.6 879.295 1517.6 Q877.096 1517.6 874.642 1518.36 Q872.211 1519.13 869.434 1520.68 L869.434 1515.95 Q872.258 1514.82 874.711 1514.24 Q877.165 1513.66 879.202 1513.66 Q884.572 1513.66 887.767 1516.35 Q890.961 1519.03 890.961 1523.52 Q890.961 1525.65 890.151 1527.57 Q889.364 1529.47 887.258 1532.07 Q886.679 1532.74 883.577 1535.95 Q880.475 1539.15 874.827 1544.91 Z" fill="#000000" fill-rule="evenodd" fill-opacity="1"></path><path clip-path="url(#clip880)" d="M1589.01 1530.21 Q1592.36 1530.93 1594.24 1533.2 Q1596.14 1535.47 1596.14 1538.8 Q1596.14 1543.92 1592.62 1546.72 Q1589.1 1549.52 1582.62 1549.52 Q1580.44 1549.52 1578.13 1549.08 Q1575.84 1548.66 1573.38 1547.81 L1573.38 1543.29 Q1575.33 1544.43 1577.64 1545.01 Q1579.96 1545.58 1582.48 1545.58 Q1586.88 1545.58 1589.17 1543.85 Q1591.48 1542.11 1591.48 1538.8 Q1591.48 1535.75 1589.33 1534.03 Q1587.2 1532.3 1583.38 1532.3 L1579.35 1532.3 L1579.35 1528.45 L1583.57 1528.45 Q1587.02 1528.45 1588.84 1527.09 Q1590.67 1525.7 1590.67 1523.11 Q1590.67 1520.45 1588.77 1519.03 Q1586.9 1517.6 1583.38 1517.6 Q1581.46 1517.6 1579.26 1518.01 Q1577.06 1518.43 1574.42 1519.31 L1574.42 1515.14 Q1577.09 1514.4 1579.4 1514.03 Q1581.74 1513.66 1583.8 1513.66 Q1589.12 1513.66 1592.22 1516.09 Q1595.33 1518.5 1595.33 1522.62 Q1595.33 1525.49 1593.68 1527.48 Q1592.04 1529.45 1589.01 1530.21 Z" fill="#000000" fill-rule="evenodd" fill-opacity="1"></path><path clip-path="url(#clip880)" d="M2292.35 1518.36 L2280.55 1536.81 L2292.35 1536.81 L2292.35 1518.36 M2291.13 1514.29 L2297.01 1514.29 L2297.01 1536.81 L2301.94 1536.81 L2301.94 1540.7 L2297.01 1540.7 L2297.01 1548.85 L2292.35 1548.85 L2292.35 1540.7 L2276.75 1540.7 L2276.75 1536.19 L2291.13 1514.29 Z" fill="#000000" fill-rule="evenodd" fill-opacity="1"></path><polyline clip-path="url(#clip882)" style="stroke:#000000; stroke-linecap:round; stroke-linejoin:round; stroke-width:2; stroke-opacity:0.1; fill:none" points="
  112.177,1445.72 2352.76,1445.72 
  "></polyline>
<polyline clip-path="url(#clip882)" style="stroke:#000000; stroke-linecap:round; stroke-linejoin:round; stroke-width:2; stroke-opacity:0.1; fill:none" points="
  112.177,993.136 2352.76,993.136 
  "></polyline>
<polyline clip-path="url(#clip882)" style="stroke:#000000; stroke-linecap:round; stroke-linejoin:round; stroke-width:2; stroke-opacity:0.1; fill:none" points="
  112.177,540.556 2352.76,540.556 
  "></polyline>
<polyline clip-path="url(#clip882)" style="stroke:#000000; stroke-linecap:round; stroke-linejoin:round; stroke-width:2; stroke-opacity:0.1; fill:none" points="
  112.177,87.9763 2352.76,87.9763 
  "></polyline>
<polyline clip-path="url(#clip880)" style="stroke:#000000; stroke-linecap:round; stroke-linejoin:round; stroke-width:4; stroke-opacity:1; fill:none" points="
  112.177,1486.45 112.177,47.2441 
  "></polyline>
<polyline clip-path="url(#clip880)" style="stroke:#000000; stroke-linecap:round; stroke-linejoin:round; stroke-width:4; stroke-opacity:1; fill:none" points="
  112.177,1445.72 131.075,1445.72 
  "></polyline>
<polyline clip-path="url(#clip880)" style="stroke:#000000; stroke-linecap:round; stroke-linejoin:round; stroke-width:4; stroke-opacity:1; fill:none" points="
  112.177,993.136 131.075,993.136 
  "></polyline>
<polyline clip-path="url(#clip880)" style="stroke:#000000; stroke-linecap:round; stroke-linejoin:round; stroke-width:4; stroke-opacity:1; fill:none" points="
  112.177,540.556 131.075,540.556 
  "></polyline>
<polyline clip-path="url(#clip880)" style="stroke:#000000; stroke-linecap:round; stroke-linejoin:round; stroke-width:4; stroke-opacity:1; fill:none" points="
  112.177,87.9763 131.075,87.9763 
  "></polyline>
<path clip-path="url(#clip880)" d="M56.2699 1459.06 L63.9087 1459.06 L63.9087 1432.69 L55.5986 1434.36 L55.5986 1430.1 L63.8624 1428.44 L68.5383 1428.44 L68.5383 1459.06 L76.1772 1459.06 L76.1772 1463 L56.2699 1463 L56.2699 1459.06 Z" fill="#000000" fill-rule="evenodd" fill-opacity="1"></path><path clip-path="url(#clip880)" d="M59.8578 1006.48 L76.1772 1006.48 L76.1772 1010.42 L54.2328 1010.42 L54.2328 1006.48 Q56.8949 1003.73 61.4782 999.097 Q66.0846 994.444 67.2652 993.101 Q69.5105 990.578 70.3902 988.842 Q71.2929 987.083 71.2929 985.393 Q71.2929 982.638 69.3485 980.902 Q67.4272 979.166 64.3254 979.166 Q62.1263 979.166 59.6726 979.93 Q57.2421 980.694 54.4643 982.245 L54.4643 977.523 Q57.2884 976.388 59.7421 975.81 Q62.1958 975.231 64.2328 975.231 Q69.6031 975.231 72.7976 977.916 Q75.992 980.601 75.992 985.092 Q75.992 987.222 75.1818 989.143 Q74.3948 991.041 72.2883 993.634 Q71.7096 994.305 68.6078 997.522 Q65.5059 1000.72 59.8578 1006.48 Z" fill="#000000" fill-rule="evenodd" fill-opacity="1"></path><path clip-path="url(#clip880)" d="M69.0476 539.202 Q72.404 539.92 74.279 542.188 Q76.1772 544.457 76.1772 547.79 Q76.1772 552.906 72.6587 555.706 Q69.1402 558.507 62.6587 558.507 Q60.4828 558.507 58.168 558.068 Q55.8764 557.651 53.4227 556.794 L53.4227 552.281 Q55.3671 553.415 57.6819 553.994 Q59.9967 554.572 62.5198 554.572 Q66.918 554.572 69.2096 552.836 Q71.5244 551.1 71.5244 547.79 Q71.5244 544.734 69.3717 543.021 Q67.242 541.285 63.4226 541.285 L59.3949 541.285 L59.3949 537.443 L63.6078 537.443 Q67.0569 537.443 68.8855 536.077 Q70.7142 534.688 70.7142 532.095 Q70.7142 529.433 68.8161 528.021 Q66.9411 526.586 63.4226 526.586 Q61.5013 526.586 59.3023 527.003 Q57.1032 527.42 54.4643 528.299 L54.4643 524.133 Q57.1264 523.392 59.4412 523.021 Q61.7791 522.651 63.8393 522.651 Q69.1633 522.651 72.2652 525.082 Q75.367 527.489 75.367 531.609 Q75.367 534.48 73.7235 536.47 Q72.08 538.438 69.0476 539.202 Z" fill="#000000" fill-rule="evenodd" fill-opacity="1"></path><path clip-path="url(#clip880)" d="M66.5939 74.7703 L54.7884 93.2193 L66.5939 93.2193 L66.5939 74.7703 M65.367 70.6963 L71.2466 70.6963 L71.2466 93.2193 L76.1772 93.2193 L76.1772 97.1082 L71.2466 97.1082 L71.2466 105.256 L66.5939 105.256 L66.5939 97.1082 L50.9921 97.1082 L50.9921 92.5943 L65.367 70.6963 Z" fill="#000000" fill-rule="evenodd" fill-opacity="1"></path><circle clip-path="url(#clip882)" cx="175.59" cy="1445.72" r="14.4" fill="#ff0000" fill-rule="evenodd" fill-opacity="1" stroke="#000000" stroke-opacity="1" stroke-width="3.2"></circle>
<circle clip-path="url(#clip882)" cx="880.174" cy="87.9763" r="14.4" fill="#ff0000" fill-rule="evenodd" fill-opacity="1" stroke="#000000" stroke-opacity="1" stroke-width="3.2"></circle>
<circle clip-path="url(#clip882)" cx="1584.76" cy="540.556" r="14.4" fill="#ff0000" fill-rule="evenodd" fill-opacity="1" stroke="#000000" stroke-opacity="1" stroke-width="3.2"></circle>
<circle clip-path="url(#clip882)" cx="2289.34" cy="993.136" r="14.4" fill="#ff0000" fill-rule="evenodd" fill-opacity="1" stroke="#000000" stroke-opacity="1" stroke-width="3.2"></circle>
<circle clip-path="url(#clip882)" cx="175.59" cy="540.556" r="14.4" fill="#0000ff" fill-rule="evenodd" fill-opacity="1" stroke="#000000" stroke-opacity="1" stroke-width="3.2"></circle>
<circle clip-path="url(#clip882)" cx="880.174" cy="993.136" r="14.4" fill="#0000ff" fill-rule="evenodd" fill-opacity="1" stroke="#000000" stroke-opacity="1" stroke-width="3.2"></circle>
<circle clip-path="url(#clip882)" cx="1584.76" cy="1445.72" r="14.4" fill="#0000ff" fill-rule="evenodd" fill-opacity="1" stroke="#000000" stroke-opacity="1" stroke-width="3.2"></circle>
<circle clip-path="url(#clip882)" cx="2289.34" cy="87.9763" r="14.4" fill="#0000ff" fill-rule="evenodd" fill-opacity="1" stroke="#000000" stroke-opacity="1" stroke-width="3.2"></circle>
<circle clip-path="url(#clip882)" cx="175.59" cy="993.136" r="14.4" fill="#008000" fill-rule="evenodd" fill-opacity="1" stroke="#000000" stroke-opacity="1" stroke-width="3.2"></circle>
<circle clip-path="url(#clip882)" cx="880.174" cy="1445.72" r="14.4" fill="#008000" fill-rule="evenodd" fill-opacity="1" stroke="#000000" stroke-opacity="1" stroke-width="3.2"></circle>
<circle clip-path="url(#clip882)" cx="1584.76" cy="87.9763" r="14.4" fill="#008000" fill-rule="evenodd" fill-opacity="1" stroke="#000000" stroke-opacity="1" stroke-width="3.2"></circle>
<circle clip-path="url(#clip882)" cx="2289.34" cy="540.556" r="14.4" fill="#008000" fill-rule="evenodd" fill-opacity="1" stroke="#000000" stroke-opacity="1" stroke-width="3.2"></circle>
<circle clip-path="url(#clip882)" cx="175.59" cy="87.9763" r="14.4" fill="#000000" fill-rule="evenodd" fill-opacity="1" stroke="none"></circle>
<circle clip-path="url(#clip882)" cx="880.174" cy="540.556" r="14.4" fill="#000000" fill-rule="evenodd" fill-opacity="1" stroke="none"></circle>
<circle clip-path="url(#clip882)" cx="1584.76" cy="993.136" r="14.4" fill="#000000" fill-rule="evenodd" fill-opacity="1" stroke="none"></circle>
<circle clip-path="url(#clip882)" cx="2289.34" cy="1445.72" r="14.4" fill="#000000" fill-rule="evenodd" fill-opacity="1" stroke="none"></circle>
<circle clip-path="url(#clip882)" cx="175.59" cy="87.9763" r="14.4" fill="#ffff00" fill-rule="evenodd" fill-opacity="1" stroke="#000000" stroke-opacity="1" stroke-width="3.2"></circle>
<circle clip-path="url(#clip882)" cx="880.174" cy="540.556" r="14.4" fill="#ffff00" fill-rule="evenodd" fill-opacity="1" stroke="#000000" stroke-opacity="1" stroke-width="3.2"></circle>
<circle clip-path="url(#clip882)" cx="1584.76" cy="993.136" r="14.4" fill="#ffff00" fill-rule="evenodd" fill-opacity="1" stroke="#000000" stroke-opacity="1" stroke-width="3.2"></circle>
<circle clip-path="url(#clip882)" cx="2289.34" cy="1445.72" r="14.4" fill="#ffff00" fill-rule="evenodd" fill-opacity="1" stroke="#000000" stroke-opacity="1" stroke-width="3.2"></circle>
<path clip-path="url(#clip880)" d="
M1999.54 406.258 L2278.07 406.258 L2278.07 95.2176 L1999.54 95.2176  Z
  " fill="#ffffff" fill-rule="evenodd" fill-opacity="1"></path>
<polyline clip-path="url(#clip880)" style="stroke:#000000; stroke-linecap:round; stroke-linejoin:round; stroke-width:4; stroke-opacity:1; fill:none" points="
  1999.54,406.258 2278.07,406.258 2278.07,95.2176 1999.54,95.2176 1999.54,406.258 
  "></polyline>
<circle clip-path="url(#clip880)" cx="2099.13" cy="147.058" r="23.04" fill="#ff0000" fill-rule="evenodd" fill-opacity="1" stroke="#000000" stroke-opacity="1" stroke-width="5.12"></circle>
<path clip-path="url(#clip880)" d="M2220.95 130.912 L2220.95 135.472 Q2218.29 134.199 2215.93 133.574 Q2213.57 132.949 2211.37 132.949 Q2207.55 132.949 2205.47 134.43 Q2203.41 135.912 2203.41 138.643 Q2203.41 140.935 2204.77 142.115 Q2206.16 143.273 2210 143.99 L2212.83 144.569 Q2218.06 145.565 2220.54 148.088 Q2223.04 150.588 2223.04 154.801 Q2223.04 159.824 2219.66 162.416 Q2216.3 165.009 2209.8 165.009 Q2207.34 165.009 2204.56 164.453 Q2201.81 163.898 2198.85 162.81 L2198.85 157.995 Q2201.69 159.592 2204.42 160.402 Q2207.16 161.213 2209.8 161.213 Q2213.8 161.213 2215.98 159.639 Q2218.15 158.064 2218.15 155.148 Q2218.15 152.602 2216.58 151.166 Q2215.03 149.731 2211.46 149.014 L2208.61 148.458 Q2203.38 147.416 2201.05 145.194 Q2198.71 142.972 2198.71 139.014 Q2198.71 134.43 2201.92 131.791 Q2205.17 129.153 2210.84 129.153 Q2213.27 129.153 2215.79 129.592 Q2218.31 130.032 2220.95 130.912 Z" fill="#000000" fill-rule="evenodd" fill-opacity="1"></path><path clip-path="url(#clip880)" d="M2231.55 160.402 L2239.19 160.402 L2239.19 134.037 L2230.88 135.703 L2230.88 131.444 L2239.15 129.778 L2243.82 129.778 L2243.82 160.402 L2251.46 160.402 L2251.46 164.338 L2231.55 164.338 L2231.55 160.402 Z" fill="#000000" fill-rule="evenodd" fill-opacity="1"></path><circle clip-path="url(#clip880)" cx="2099.13" cy="198.898" r="23.04" fill="#0000ff" fill-rule="evenodd" fill-opacity="1" stroke="#000000" stroke-opacity="1" stroke-width="5.12"></circle>
<path clip-path="url(#clip880)" d="M2220.95 182.752 L2220.95 187.312 Q2218.29 186.039 2215.93 185.414 Q2213.57 184.789 2211.37 184.789 Q2207.55 184.789 2205.47 186.27 Q2203.41 187.752 2203.41 190.483 Q2203.41 192.775 2204.77 193.955 Q2206.16 195.113 2210 195.83 L2212.83 196.409 Q2218.06 197.405 2220.54 199.928 Q2223.04 202.428 2223.04 206.641 Q2223.04 211.664 2219.66 214.256 Q2216.3 216.849 2209.8 216.849 Q2207.34 216.849 2204.56 216.293 Q2201.81 215.738 2198.85 214.65 L2198.85 209.835 Q2201.69 211.432 2204.42 212.242 Q2207.16 213.053 2209.8 213.053 Q2213.8 213.053 2215.98 211.479 Q2218.15 209.904 2218.15 206.988 Q2218.15 204.442 2216.58 203.006 Q2215.03 201.571 2211.46 200.854 L2208.61 200.298 Q2203.38 199.256 2201.05 197.034 Q2198.71 194.812 2198.71 190.854 Q2198.71 186.27 2201.92 183.631 Q2205.17 180.993 2210.84 180.993 Q2213.27 180.993 2215.79 181.432 Q2218.31 181.872 2220.95 182.752 Z" fill="#000000" fill-rule="evenodd" fill-opacity="1"></path><path clip-path="url(#clip880)" d="M2234.77 212.242 L2251.09 212.242 L2251.09 216.178 L2229.15 216.178 L2229.15 212.242 Q2231.81 209.488 2236.39 204.858 Q2241 200.205 2242.18 198.863 Q2244.42 196.34 2245.3 194.604 Q2246.21 192.844 2246.21 191.155 Q2246.21 188.4 2244.26 186.664 Q2242.34 184.928 2239.24 184.928 Q2237.04 184.928 2234.59 185.692 Q2232.16 186.455 2229.38 188.006 L2229.38 183.284 Q2232.2 182.15 2234.66 181.571 Q2237.11 180.993 2239.15 180.993 Q2244.52 180.993 2247.71 183.678 Q2250.91 186.363 2250.91 190.854 Q2250.91 192.983 2250.1 194.905 Q2249.31 196.803 2247.2 199.395 Q2246.62 200.067 2243.52 203.284 Q2240.42 206.479 2234.77 212.242 Z" fill="#000000" fill-rule="evenodd" fill-opacity="1"></path><circle clip-path="url(#clip880)" cx="2099.13" cy="250.738" r="23.04" fill="#008000" fill-rule="evenodd" fill-opacity="1" stroke="#000000" stroke-opacity="1" stroke-width="5.12"></circle>
<path clip-path="url(#clip880)" d="M2220.95 234.592 L2220.95 239.152 Q2218.29 237.879 2215.93 237.254 Q2213.57 236.629 2211.37 236.629 Q2207.55 236.629 2205.47 238.11 Q2203.41 239.592 2203.41 242.323 Q2203.41 244.615 2204.77 245.795 Q2206.16 246.953 2210 247.67 L2212.83 248.249 Q2218.06 249.245 2220.54 251.768 Q2223.04 254.268 2223.04 258.481 Q2223.04 263.504 2219.66 266.096 Q2216.3 268.689 2209.8 268.689 Q2207.34 268.689 2204.56 268.133 Q2201.81 267.578 2198.85 266.49 L2198.85 261.675 Q2201.69 263.272 2204.42 264.082 Q2207.16 264.893 2209.8 264.893 Q2213.8 264.893 2215.98 263.319 Q2218.15 261.744 2218.15 258.828 Q2218.15 256.282 2216.58 254.846 Q2215.03 253.411 2211.46 252.694 L2208.61 252.138 Q2203.38 251.096 2201.05 248.874 Q2198.71 246.652 2198.71 242.694 Q2198.71 238.11 2201.92 235.471 Q2205.17 232.833 2210.84 232.833 Q2213.27 232.833 2215.79 233.272 Q2218.31 233.712 2220.95 234.592 Z" fill="#000000" fill-rule="evenodd" fill-opacity="1"></path><path clip-path="url(#clip880)" d="M2244.91 249.383 Q2248.27 250.101 2250.14 252.369 Q2252.04 254.638 2252.04 257.971 Q2252.04 263.087 2248.52 265.888 Q2245 268.689 2238.52 268.689 Q2236.35 268.689 2234.03 268.249 Q2231.74 267.832 2229.29 266.976 L2229.29 262.462 Q2231.23 263.596 2233.55 264.175 Q2235.86 264.754 2238.38 264.754 Q2242.78 264.754 2245.07 263.018 Q2247.39 261.281 2247.39 257.971 Q2247.39 254.916 2245.23 253.203 Q2243.11 251.467 2239.29 251.467 L2235.26 251.467 L2235.26 247.624 L2239.47 247.624 Q2242.92 247.624 2244.75 246.258 Q2246.58 244.87 2246.58 242.277 Q2246.58 239.615 2244.68 238.203 Q2242.8 236.768 2239.29 236.768 Q2237.36 236.768 2235.17 237.184 Q2232.97 237.601 2230.33 238.481 L2230.33 234.314 Q2232.99 233.573 2235.3 233.203 Q2237.64 232.833 2239.7 232.833 Q2245.03 232.833 2248.13 235.263 Q2251.23 237.67 2251.23 241.791 Q2251.23 244.661 2249.59 246.652 Q2247.94 248.62 2244.91 249.383 Z" fill="#000000" fill-rule="evenodd" fill-opacity="1"></path><circle clip-path="url(#clip880)" cx="2099.13" cy="302.578" r="23.04" fill="#000000" fill-rule="evenodd" fill-opacity="1" stroke="none"></circle>
<path clip-path="url(#clip880)" d="M2220.95 286.432 L2220.95 290.992 Q2218.29 289.719 2215.93 289.094 Q2213.57 288.469 2211.37 288.469 Q2207.55 288.469 2205.47 289.95 Q2203.41 291.432 2203.41 294.163 Q2203.41 296.455 2204.77 297.635 Q2206.16 298.793 2210 299.51 L2212.83 300.089 Q2218.06 301.085 2220.54 303.608 Q2223.04 306.108 2223.04 310.321 Q2223.04 315.344 2219.66 317.936 Q2216.3 320.529 2209.8 320.529 Q2207.34 320.529 2204.56 319.973 Q2201.81 319.418 2198.85 318.33 L2198.85 313.515 Q2201.69 315.112 2204.42 315.922 Q2207.16 316.733 2209.8 316.733 Q2213.8 316.733 2215.98 315.159 Q2218.15 313.584 2218.15 310.668 Q2218.15 308.122 2216.58 306.686 Q2215.03 305.251 2211.46 304.534 L2208.61 303.978 Q2203.38 302.936 2201.05 300.714 Q2198.71 298.492 2198.71 294.534 Q2198.71 289.95 2201.92 287.311 Q2205.17 284.673 2210.84 284.673 Q2213.27 284.673 2215.79 285.112 Q2218.31 285.552 2220.95 286.432 Z" fill="#000000" fill-rule="evenodd" fill-opacity="1"></path><path clip-path="url(#clip880)" d="M2243.59 289.372 L2231.79 307.821 L2243.59 307.821 L2243.59 289.372 M2242.36 285.298 L2248.24 285.298 L2248.24 307.821 L2253.17 307.821 L2253.17 311.709 L2248.24 311.709 L2248.24 319.858 L2243.59 319.858 L2243.59 311.709 L2227.99 311.709 L2227.99 307.196 L2242.36 285.298 Z" fill="#000000" fill-rule="evenodd" fill-opacity="1"></path><circle clip-path="url(#clip880)" cx="2099.13" cy="354.418" r="23.04" fill="#ffff00" fill-rule="evenodd" fill-opacity="1" stroke="#000000" stroke-opacity="1" stroke-width="5.12"></circle>
<path clip-path="url(#clip880)" d="M2220.95 338.272 L2220.95 342.832 Q2218.29 341.559 2215.93 340.934 Q2213.57 340.309 2211.37 340.309 Q2207.55 340.309 2205.47 341.79 Q2203.41 343.272 2203.41 346.003 Q2203.41 348.295 2204.77 349.475 Q2206.16 350.633 2210 351.35 L2212.83 351.929 Q2218.06 352.925 2220.54 355.448 Q2223.04 357.948 2223.04 362.161 Q2223.04 367.184 2219.66 369.776 Q2216.3 372.369 2209.8 372.369 Q2207.34 372.369 2204.56 371.813 Q2201.81 371.258 2198.85 370.17 L2198.85 365.355 Q2201.69 366.952 2204.42 367.762 Q2207.16 368.573 2209.8 368.573 Q2213.8 368.573 2215.98 366.999 Q2218.15 365.424 2218.15 362.508 Q2218.15 359.962 2216.58 358.526 Q2215.03 357.091 2211.46 356.374 L2208.61 355.818 Q2203.38 354.776 2201.05 352.554 Q2198.71 350.332 2198.71 346.374 Q2198.71 341.79 2201.92 339.151 Q2205.17 336.513 2210.84 336.513 Q2213.27 336.513 2215.79 336.952 Q2218.31 337.392 2220.95 338.272 Z" fill="#000000" fill-rule="evenodd" fill-opacity="1"></path><path clip-path="url(#clip880)" d="M2243.59 341.212 L2231.79 359.661 L2243.59 359.661 L2243.59 341.212 M2242.36 337.138 L2248.24 337.138 L2248.24 359.661 L2253.17 359.661 L2253.17 363.549 L2248.24 363.549 L2248.24 371.698 L2243.59 371.698 L2243.59 363.549 L2227.99 363.549 L2227.99 359.036 L2242.36 337.138 Z" fill="#000000" fill-rule="evenodd" fill-opacity="1"></path></svg>